<svg width="80" height="60" viewBox="0 0 80 60" fill="none" xmlns="http://www.w3.org/2000/svg">
<path d="M2.27344 48.1558H3.97607L7.02686 51.2173L10.0776 48.1558H11.7803V56.5508H10.0776V50.5137L7.02686 53.4517L3.97607 50.5137V56.5508H2.27344V48.1558ZM19.1763 52.3292C19.1763 51.6954 19.2926 51.1153 19.5254 50.5889C19.7581 50.0626 20.084 49.6114 20.5029 49.2354C20.9255 48.8559 21.4303 48.5622 22.0176 48.3546C22.6084 48.1469 23.2619 48.043 23.978 48.043C24.6906 48.043 25.3423 48.1469 25.9331 48.3546C26.5239 48.5622 27.0288 48.8559 27.4478 49.2354C27.8703 49.6114 28.1979 50.0626 28.4307 50.5889C28.6634 51.1153 28.7798 51.6954 28.7798 52.3292C28.7798 52.9665 28.6634 53.552 28.4307 54.0855C28.1979 54.6155 27.8703 55.072 27.4478 55.4551C27.0288 55.8383 26.5239 56.1373 25.9331 56.3521C25.3423 56.5634 24.6906 56.669 23.978 56.669C23.2619 56.669 22.6084 56.5634 22.0176 56.3521C21.4303 56.1373 20.9255 55.8383 20.5029 55.4551C20.084 55.072 19.7581 54.6155 19.5254 54.0855C19.2926 53.552 19.1763 52.9665 19.1763 52.3292ZM20.8789 52.3292C20.8789 52.7624 20.9559 53.1527 21.1099 53.5001C21.2674 53.8474 21.484 54.1446 21.7598 54.3917C22.0391 54.6352 22.3667 54.8231 22.7427 54.9556C23.1222 55.0881 23.534 55.1544 23.978 55.1544C24.422 55.1544 24.832 55.0881 25.208 54.9556C25.5876 54.8231 25.9152 54.6352 26.1909 54.3917C26.4666 54.1446 26.6833 53.8474 26.8408 53.5001C26.9984 53.1527 27.0771 52.7624 27.0771 52.3292C27.0771 51.8959 26.9984 51.5074 26.8408 51.1636C26.6833 50.8199 26.4666 50.5298 26.1909 50.2935C25.9152 50.0536 25.5876 49.871 25.208 49.7457C24.832 49.6203 24.422 49.5577 23.978 49.5577C23.534 49.5577 23.1222 49.6203 22.7427 49.7457C22.3667 49.871 22.0391 50.0536 21.7598 50.2935C21.484 50.5298 21.2674 50.8199 21.1099 51.1636C20.9559 51.5074 20.8789 51.8959 20.8789 52.3292ZM35.9556 48.1558H37.6689V56.5508H35.9556V48.1558ZM45.3442 48.1558H49.6143C50.2588 48.1558 50.8174 48.2239 51.29 48.3599C51.7627 48.4924 52.1548 48.6858 52.4663 48.94C52.7778 49.1942 53.0088 49.504 53.1592 49.8692C53.3132 50.2344 53.3901 50.648 53.3901 51.1099C53.3901 51.4214 53.3525 51.7186 53.2773 52.0015C53.2021 52.2808 53.0858 52.5386 52.9282 52.775C52.7743 53.0113 52.5791 53.2226 52.3428 53.4088C52.1064 53.5914 51.8289 53.7436 51.5103 53.8653L53.3364 56.5508H51.2524L49.6733 54.1661H49.625L47.0469 54.1607V56.5508H45.3442V48.1558ZM49.6572 52.689C49.9795 52.689 50.2606 52.6514 50.5005 52.5762C50.744 52.501 50.9463 52.3954 51.1074 52.2593C51.2721 52.1233 51.3939 51.9586 51.4727 51.7652C51.555 51.5683 51.5962 51.3498 51.5962 51.1099C51.5962 50.6408 51.4351 50.2792 51.1128 50.025C50.7905 49.7672 50.3053 49.6382 49.6572 49.6382H47.0469V52.689H49.6572ZM63.7725 48.1558H65.5771L69.6377 56.5508H67.8491L67.1777 55.1382H62.2739L61.624 56.5508H59.8301L63.7725 48.1558ZM66.5063 53.7364L64.6909 49.9229L62.9238 53.7364H66.5063ZM76.228 48.1558H77.9414V56.5508H76.228V48.1558Z" fill="#443534"/>
<path d="M37.9971 10.8591C37.9393 11.3415 37.8463 11.8191 37.7189 12.288C37.4479 12.8695 37.2501 13.4823 37.13 14.1124C37.13 14.0953 37.13 14.1647 37.13 14.239C37.4791 14.518 37.7731 14.8595 37.9971 15.246C38.2534 15.7709 38.5316 17.0561 39.2015 17.2399C41.2282 17.7877 43.1701 16.1462 43.2378 17.5943C43.3055 19.0423 43.7447 20.8705 42.8843 21.3973C41.2937 21.9953 39.6603 22.4729 37.998 22.8263C37.1864 23.0254 36.4437 23.4401 35.8484 24.0266C34.9535 24.7933 34.2514 25.7595 33.7988 26.8474" stroke="#443534" stroke-width="1.25" stroke-linecap="round" stroke-linejoin="round"/>
<path d="M72.0684 9.62921C72.4975 10.6443 72.7411 11.7281 72.7878 12.8292C72.7802 13.0369 71.8511 12.9369 71.8244 13.2494C71.8244 13.2494 71.5224 16.0816 70.5095 16.355C68.4828 16.9028 66.5409 15.2613 66.4732 16.7084C66.4142 17.9726 66.1874 20.5257 66.7229 21.3192C68.3132 21.6077 69.8754 22.0339 71.3919 22.593C73.2194 23.3684 75.4414 24.4678 75.9026 25.3557C77.0729 27.7757 78.0879 30.2678 78.9413 32.8168" stroke="#443534" stroke-width="1.25" stroke-linecap="round" stroke-linejoin="round"/>
<path d="M12.3513 10.8599C12.3513 10.8599 11.8635 11.8725 11.3747 12.0431C11.1718 12.0775 10.9791 12.1564 10.8102 12.274C10.6414 12.3916 10.5006 12.545 10.398 12.7233C10.2246 12.9929 10.5057 14.0036 10.398 14.4695C10.2541 15.0858 9.8015 15.6584 9.76529 16.1348C9.63666 17.8429 13.4814 18.9213 13.9264 19.4491C14.0072 20.5307 14.0072 21.6169 13.9264 22.6986C13.9941 24.1466 12.7048 24.4229 11.8444 24.9497C10.984 25.4766 8.53421 26.0624 6.60374 26.8817C5.57516 27.2234 4.62575 27.7684 3.81189 28.4841C3.18396 29.0099 1 34.6268 1 34.6268" stroke="#443534" stroke-width="1.25" stroke-linecap="round" stroke-linejoin="round"/>
<path d="M47.5737 8.76141C47.5737 8.76141 48.0502 15.1318 48.8487 16.7637C49.2433 17.8511 50.0008 18.7693 50.9935 19.3635C51.7482 19.7827 54.602 19.635 55.6739 19.8179C56.7459 20.0008 59.8998 20.4037 60.4849 21.8327C61.0178 23.3143 61.3457 24.8618 61.4596 26.4321C61.3583 27.6877 60.936 28.8963 60.2333 29.9418" stroke="#443534" stroke-width="1.25" stroke-linecap="round" stroke-linejoin="round"/>
<path d="M56.2486 19.3909C56.2486 19.3909 57.1185 17.1351 56.058 15.5241C54.9975 13.9132 52.3838 13.2682 52.3838 13.2682C52.3838 13.2682 55.6235 10.2569 53.5072 7.3113C51.3909 4.36569 48.6286 0.500679 44.2093 1.05322C39.79 1.60576 32.8865 4.3666 32.7026 6.57867C32.5187 8.79073 34.1757 11.8097 34.4016 12.1641C34.6491 12.5411 34.781 12.9821 34.781 13.433C34.781 13.8839 34.6491 14.325 34.4016 14.7019C33.5457 15.7239 32.5515 16.6218 31.4478 17.3694" stroke="#443534" stroke-width="1.25" stroke-linecap="round" stroke-linejoin="round"/>
<path d="M15.1977 13.4564C15.1977 13.4564 13.959 12.1485 12.9108 10.87C12.502 10.1214 12.2251 9.30796 12.0924 8.46544C12.0924 8.46544 11.4187 2.09215 16.8109 3.23629C18.8871 3.67642 22.5966 5.88284 23.9916 6.82597C25.4325 7.74451 26.6524 8.97027 27.5638 10.4155C28.2508 11.6121 27.1827 14.7977 27.5638 14.7977C27.9449 14.7977 31.5458 17.6967 31.7087 19.9841C31.8716 22.2714 30.5472 23.0897 30.247 23.8395L33.1656 26.4535C33.1656 26.4535 35.1666 28.8618 35.118 30.0354C35.118 32.5571 32.0822 34.9131 26.53 35.0236C20.9777 35.1341 17.1224 35.1674 14.2887 33.023C11.4549 30.8785 15.1967 26.4497 15.1967 26.4497" stroke="#443534" stroke-width="1.25" stroke-linecap="round" stroke-linejoin="round"/>
<path d="M75.3722 24.6175C75.8779 24.5655 76.3611 24.3812 76.7729 24.0832C77.1847 23.7852 77.5107 23.3839 77.7181 22.9199C78.6815 21.2051 75.8744 19.3588 75.8744 19.3588C75.8744 19.3588 77.3036 18.5805 77.7181 18.2871C78.1326 17.9937 79.3761 17.2392 78.1603 15.1872C77.3943 13.913 76.4558 12.7509 75.3713 11.7338C75.3713 11.7338 78.6815 10.5192 78.975 8.88537C79.2684 7.25157 76.9216 3.27137 74.1154 2.89508C71.3093 2.51878 65.9866 1.72236 64.0152 2.89508C62.0437 4.06779 62.2133 4.02587 59.2385 7.54497C57.4941 9.55253 56.2529 11.9465 55.6177 14.5289" stroke="#443534" stroke-width="1.25" stroke-linecap="round" stroke-linejoin="round"/>
</svg>
