<svg width="80" height="36" viewBox="0 0 80 36" fill="none" xmlns="http://www.w3.org/2000/svg">
<path d="M37.9971 10.8591C37.9393 11.3415 37.8463 11.8191 37.7189 12.288C37.4479 12.8695 37.2501 13.4823 37.13 14.1124C37.13 14.0953 37.13 14.1647 37.13 14.239C37.4791 14.518 37.7731 14.8595 37.9971 15.246C38.2534 15.7709 38.5316 17.0561 39.2015 17.2399C41.2282 17.7877 43.1701 16.1462 43.2378 17.5943C43.3055 19.0423 43.7447 20.8705 42.8843 21.3973C41.2937 21.9953 39.6603 22.4729 37.998 22.8263C37.1864 23.0254 36.4437 23.4401 35.8484 24.0266C34.9535 24.7933 34.2514 25.7595 33.7988 26.8474" stroke="#443534" stroke-width="1.25" stroke-linecap="round" stroke-linejoin="round"/>
<path d="M72.0684 9.62921C72.4975 10.6443 72.7411 11.7281 72.7878 12.8292C72.7802 13.0369 71.8511 12.9369 71.8244 13.2494C71.8244 13.2494 71.5224 16.0816 70.5095 16.355C68.4828 16.9028 66.5409 15.2613 66.4732 16.7084C66.4142 17.9726 66.1874 20.5257 66.7229 21.3192C68.3132 21.6077 69.8754 22.0339 71.3919 22.593C73.2194 23.3684 75.4414 24.4678 75.9026 25.3557C77.0729 27.7757 78.0879 30.2678 78.9413 32.8168" stroke="#443534" stroke-width="1.25" stroke-linecap="round" stroke-linejoin="round"/>
<path d="M12.3513 10.8599C12.3513 10.8599 11.8635 11.8725 11.3747 12.0431C11.1718 12.0775 10.9791 12.1564 10.8102 12.274C10.6414 12.3916 10.5006 12.545 10.398 12.7233C10.2246 12.9929 10.5057 14.0036 10.398 14.4695C10.2541 15.0858 9.8015 15.6584 9.76529 16.1348C9.63666 17.8429 13.4814 18.9213 13.9264 19.4491C14.0072 20.5307 14.0072 21.6169 13.9264 22.6986C13.9941 24.1466 12.7048 24.4229 11.8444 24.9497C10.984 25.4766 8.53421 26.0624 6.60374 26.8817C5.57516 27.2234 4.62575 27.7684 3.81189 28.4841C3.18396 29.0099 1 34.6268 1 34.6268" stroke="#443534" stroke-width="1.25" stroke-linecap="round" stroke-linejoin="round"/>
<path d="M47.5737 8.76141C47.5737 8.76141 48.0502 15.1318 48.8487 16.7637C49.2433 17.8511 50.0008 18.7693 50.9935 19.3635C51.7482 19.7827 54.602 19.635 55.6739 19.8179C56.7459 20.0008 59.8998 20.4037 60.4849 21.8327C61.0178 23.3143 61.3457 24.8618 61.4596 26.4321C61.3583 27.6877 60.936 28.8963 60.2333 29.9418" stroke="#443534" stroke-width="1.25" stroke-linecap="round" stroke-linejoin="round"/>
<path d="M56.2486 19.3909C56.2486 19.3909 57.1185 17.1351 56.058 15.5241C54.9975 13.9132 52.3838 13.2682 52.3838 13.2682C52.3838 13.2682 55.6235 10.2569 53.5072 7.3113C51.3909 4.36569 48.6286 0.500679 44.2093 1.05322C39.79 1.60576 32.8865 4.3666 32.7026 6.57867C32.5187 8.79073 34.1757 11.8097 34.4016 12.1641C34.6491 12.5411 34.781 12.9821 34.781 13.433C34.781 13.8839 34.6491 14.325 34.4016 14.7019C33.5457 15.7239 32.5515 16.6218 31.4478 17.3694" stroke="#443534" stroke-width="1.25" stroke-linecap="round" stroke-linejoin="round"/>
<path d="M15.1977 13.4564C15.1977 13.4564 13.959 12.1485 12.9108 10.87C12.502 10.1214 12.2251 9.30796 12.0924 8.46544C12.0924 8.46544 11.4187 2.09215 16.8109 3.23629C18.8871 3.67642 22.5966 5.88284 23.9916 6.82597C25.4325 7.74451 26.6524 8.97027 27.5638 10.4155C28.2508 11.6121 27.1827 14.7977 27.5638 14.7977C27.9449 14.7977 31.5458 17.6967 31.7087 19.9841C31.8716 22.2714 30.5472 23.0897 30.247 23.8395L33.1656 26.4535C33.1656 26.4535 35.1666 28.8618 35.118 30.0354C35.118 32.5571 32.0822 34.9131 26.53 35.0236C20.9777 35.1341 17.1224 35.1674 14.2887 33.023C11.4549 30.8785 15.1967 26.4497 15.1967 26.4497" stroke="#443534" stroke-width="1.25" stroke-linecap="round" stroke-linejoin="round"/>
<path d="M75.3722 24.6175C75.8779 24.5655 76.3611 24.3812 76.7729 24.0832C77.1847 23.7852 77.5107 23.3839 77.7181 22.9199C78.6815 21.2051 75.8744 19.3588 75.8744 19.3588C75.8744 19.3588 77.3036 18.5805 77.7181 18.2871C78.1326 17.9937 79.3761 17.2392 78.1603 15.1872C77.3943 13.913 76.4558 12.7509 75.3713 11.7338C75.3713 11.7338 78.6815 10.5192 78.975 8.88537C79.2684 7.25157 76.9216 3.27137 74.1154 2.89508C71.3093 2.51878 65.9866 1.72236 64.0152 2.89508C62.0437 4.06779 62.2133 4.02587 59.2385 7.54497C57.4941 9.55253 56.2529 11.9465 55.6177 14.5289" stroke="#443534" stroke-width="1.25" stroke-linecap="round" stroke-linejoin="round"/>
</svg>
