<svg width="23" height="23" viewBox="0 0 23 23" fill="none" xmlns="http://www.w3.org/2000/svg">
<g clip-path="url(#clip0_304_165)">
<path d="M5 8.4502H18C18.1326 8.4502 18.2598 8.50287 18.3536 8.59664C18.4473 8.69041 18.5 8.81759 18.5 8.9502V17.9502C18.5 18.6132 18.2366 19.2491 17.7678 19.718C17.2989 20.1868 16.663 20.4502 16 20.4502H7C6.6717 20.4502 6.34661 20.3855 6.04329 20.2599C5.73998 20.1343 5.46438 19.9501 5.23223 19.718C4.76339 19.2491 4.5 18.6132 4.5 17.9502V8.9502C4.5 8.81759 4.55268 8.69041 4.64645 8.59664C4.74021 8.50287 4.86739 8.4502 5 8.4502V8.4502Z" stroke="#443B35" stroke-width="1.25"/>
<path d="M7.86609 12.3999V6.78516C7.86609 6.78516 7.74701 3.5 11.786 3.5C15.825 3.5 15.3861 6.78516 15.3861 6.78516V12.3999" stroke="#443B35" stroke-width="1.25" stroke-linecap="round"/>
</g>
<defs>
<clipPath id="clip0_304_165">
<rect width="15" height="17.95" fill="white" transform="translate(4 3)"/>
</clipPath>
</defs>
</svg>
