<svg width="23" height="23" viewBox="0 0 23 23" fill="none" xmlns="http://www.w3.org/2000/svg">
<path d="M3.67436 7.49244L4.07017 9.54219L4.07659 9.57547C4.28147 10.6365 4.39152 11.2064 4.54576 11.7546C5.14164 13.8724 6.24147 15.8143 7.75124 17.4145C8.14204 17.8287 8.57422 18.2162 9.37878 18.9376L9.40405 18.9602C9.41945 18.974 9.43461 18.9876 9.44955 19.001C9.72793 19.2508 9.93092 19.4329 10.144 19.5615C10.978 20.0646 12.022 20.0646 12.856 19.5615C13.0691 19.4329 13.2721 19.2508 13.5505 19.001C13.5654 18.9876 13.5806 18.974 13.5959 18.9602L13.6212 18.9376C14.4258 18.2162 14.8579 17.8288 15.2487 17.4146C16.7586 15.8144 17.8584 13.8723 18.4543 11.7545C18.6086 11.2063 18.7186 10.6364 18.9235 9.57541L18.9299 9.5421L19.3399 7.4188C19.3426 7.40486 19.3453 7.391 19.3479 7.3772C19.38 7.21218 19.41 7.05728 19.4131 6.91756C19.4305 6.11247 18.8557 5.41604 18.0619 5.28053C17.9241 5.25701 17.7663 5.25716 17.5982 5.25733C17.5842 5.25734 17.5701 5.25736 17.5559 5.25736C17.1973 5.25736 17.0363 5.25722 16.8786 5.25033C15.9734 5.21078 15.0832 5.00478 14.2527 4.64263C14.1079 4.57952 13.9633 4.50893 13.6412 4.35139L12.9336 4.00534L12.9047 3.99124C12.7198 3.90074 12.5835 3.83407 12.4443 3.78437C11.827 3.56405 11.1496 3.58262 10.5453 3.83643C10.409 3.8937 10.2766 3.96773 10.0968 4.06825L10.0689 4.08388C9.64317 4.32182 9.45194 4.42842 9.25921 4.52163C8.39049 4.94178 7.44777 5.18735 6.48448 5.24444C6.27076 5.2571 6.05183 5.25735 5.56413 5.25735L5.51915 5.25735C5.50038 5.25735 5.4817 5.25733 5.46311 5.25731C5.24078 5.25702 5.03179 5.25675 4.85125 5.29781C4.13092 5.46161 3.61171 6.09067 3.58745 6.82899C3.58137 7.01404 3.62126 7.21919 3.66369 7.43744C3.66724 7.45569 3.67081 7.47402 3.67436 7.49244Z" stroke="#443B35" stroke-width="1.25"/>
<circle cx="11.5" cy="10.5" r="1.5" fill="#443B35"/>
<line x1="11.5" y1="11" x2="11.5" y2="14" stroke="#443B35"/>
</svg>
