<svg width="23" height="23" viewBox="0 0 23 23" fill="none" xmlns="http://www.w3.org/2000/svg">
<mask id="path-1-inside-1_304_179" fill="white">
<path d="M0.999878 5C0.999878 3.89543 1.89531 3 2.99988 3H13.5508C14.6553 3 15.5508 3.89543 15.5508 5V15.4316C15.5508 15.9839 15.103 16.4316 14.5508 16.4316H2.99988C1.89531 16.4316 0.999878 15.5361 0.999878 14.4316V5Z"/>
</mask>
<path d="M0.999878 5C0.999878 3.89543 1.89531 3 2.99988 3H13.5508C14.6553 3 15.5508 3.89543 15.5508 5V15.4316C15.5508 15.9839 15.103 16.4316 14.5508 16.4316H2.99988C1.89531 16.4316 0.999878 15.5361 0.999878 14.4316V5Z" stroke="#443B35" stroke-width="2.5" mask="url(#path-1-inside-1_304_179)"/>
<path d="M3.8634 15.9375H8.20989V16.9914C8.20989 18.1917 7.2369 19.1647 6.03665 19.1647C4.8364 19.1647 3.8634 18.1917 3.8634 16.9914V15.9375Z" stroke="#443B35" stroke-width="1.25"/>
<path d="M15.0565 15.9375H19.403V16.9914C19.403 18.1917 18.43 19.1647 17.2298 19.1647C16.0295 19.1647 15.0565 18.1917 15.0565 16.9914V15.9375Z" stroke="#443B35" stroke-width="1.25"/>
<mask id="path-4-inside-2_304_179" fill="white">
<rect x="14.4314" y="11.9541" width="7.83509" height="4.47719" rx="1"/>
</mask>
<rect x="14.4314" y="11.9541" width="7.83509" height="4.47719" rx="1" stroke="#443B35" stroke-width="2.5" mask="url(#path-4-inside-2_304_179)"/>
<mask id="path-5-inside-3_304_179" fill="white">
<path d="M14.4315 8.47705C14.4315 7.92477 14.8792 7.47705 15.4315 7.47705H17.028C18.6849 7.47705 20.028 8.8202 20.028 10.4771V12.0735C20.028 12.6258 19.5803 13.0735 19.028 13.0735H15.4315C14.8792 13.0735 14.4315 12.6258 14.4315 12.0735V8.47705Z"/>
</mask>
<path d="M14.4315 8.47705C14.4315 7.92477 14.8792 7.47705 15.4315 7.47705H17.028C18.6849 7.47705 20.028 8.8202 20.028 10.4771V12.0735C20.028 12.6258 19.5803 13.0735 19.028 13.0735H15.4315C14.8792 13.0735 14.4315 12.6258 14.4315 12.0735V8.47705Z" stroke="#443B35" stroke-width="2.5" mask="url(#path-5-inside-3_304_179)"/>
</svg>
