<svg width="23" height="23" viewBox="0 0 23 23" fill="none" xmlns="http://www.w3.org/2000/svg">
<path d="M5.75433 18.3136L5.52613 17.8687L5.52613 17.8687L5.75433 18.3136ZM8.05664 17.5179L8.01483 17.0196L8.05664 17.5179ZM8.1111 17.5234L8.25203 17.0437L8.1111 17.5234ZM3.96893 18.5548L3.54357 18.292L3.96893 18.5548ZM4.25739 15.3593L4.60685 15.0017L4.25739 15.3593ZM4.2989 15.4325L4.78616 15.3203L4.78616 15.3203L4.2989 15.4325ZM20 11.5C20 13.094 19.1063 14.5822 17.5712 15.6909C16.0368 16.7991 13.8919 17.5 11.5 17.5V18.5C14.0787 18.5 16.4338 17.7458 18.1567 16.5015C19.8789 15.2577 21 13.4958 21 11.5H20ZM11.5 5.5C13.8919 5.5 16.0368 6.20092 17.5712 7.30915C19.1063 8.41785 20 9.906 20 11.5H21C21 9.50415 19.8789 7.7423 18.1567 6.49847C16.4338 5.25415 14.0787 4.5 11.5 4.5V5.5ZM3 11.5C3 9.906 3.89366 8.41785 5.42878 7.30915C6.96325 6.20092 9.10814 5.5 11.5 5.5V4.5C8.9213 4.5 6.56619 5.25415 4.84329 6.49847C3.12106 7.7423 2 9.50415 2 11.5H3ZM4.60685 15.0017C3.57926 13.9975 3 12.7856 3 11.5H2C2 13.1046 2.72664 14.5625 3.90793 15.7169L4.60685 15.0017ZM4.3943 18.8176C5.08719 17.6961 5.016 16.3189 4.78616 15.3203L3.81164 15.5446C4.01771 16.4399 4.03303 17.4997 3.54357 18.292L4.3943 18.8176ZM5.52613 17.8687C5.11199 18.0811 4.65726 18.3142 4.0832 18.5578L4.47382 19.4784C5.08459 19.2192 5.56786 18.9712 5.98254 18.7585L5.52613 17.8687ZM8.01483 17.0196C7.00699 17.1042 6.32753 17.4576 5.52613 17.8687L5.98254 18.7585C6.79167 18.3434 7.31047 18.0822 8.09845 18.0161L8.01483 17.0196ZM11.5 17.5C10.348 17.5 9.2514 17.3373 8.25203 17.0437L7.97018 18.0032C9.06281 18.3241 10.2544 18.5 11.5 18.5V17.5ZM8.09845 18.0161C8.05384 18.0198 8.01047 18.015 7.97018 18.0032L8.25203 17.0437C8.17651 17.0215 8.09603 17.0128 8.01483 17.0196L8.09845 18.0161ZM3.54357 18.292C3.42351 18.4863 3.44113 18.6898 3.46493 18.8037C3.49139 18.9303 3.54531 19.047 3.60722 19.1423C3.66767 19.2353 3.75687 19.3405 3.87772 19.4178C3.99506 19.4929 4.22066 19.5858 4.47382 19.4784L4.0832 18.5578C4.25386 18.4854 4.38774 18.557 4.41684 18.5756C4.44945 18.5965 4.45391 18.61 4.44581 18.5975C4.43918 18.5873 4.44075 18.5846 4.44378 18.5991C4.44415 18.6008 4.46725 18.6995 4.3943 18.8176L3.54357 18.292ZM3.90793 15.7169C3.86337 15.6734 3.82774 15.6146 3.81164 15.5446L4.78616 15.3203C4.7572 15.1945 4.69244 15.0854 4.60685 15.0017L3.90793 15.7169Z" fill="#443B35"/>
<circle cx="7.5" cy="11.5" r="1" fill="#443B35"/>
<circle cx="11.5" cy="11.5" r="1" fill="#443B35"/>
<circle cx="15.5" cy="11.5" r="1" fill="#443B35"/>
</svg>
